<svg width="642" height="628" viewBox="0 0 642 628" fill="none" xmlns="http://www.w3.org/2000/svg">
<path d="M479.5 455.5L500 446L511.5 482.5L483.5 493.5L479.5 484C479.5 484 478.333 456.5 479.5 455.5Z" fill="#FF948C" stroke="#C54A3A"/>
<path d="M480 459.5V455.5L499.5 447.5L501.5 449.5C499.5 451.9 486.333 457.167 480 459.5Z" fill="#C54A3A"/>
<path d="M510.5 520.5V528C504 528.723 499.667 525.111 498 523.277L495 511.277L512 516.5C510.5 520.5 511 520 510.5 520.5Z" fill="#FF948C"/>
<path d="M516 481C506.5 484.5 489 490.5 477 497" stroke="#C54A3A"/>
<path d="M484.5 194.5C494.167 206.667 520.9 235 550.5 251C550 244.5 488.5 194.5 484.5 194.5Z" fill="url(#paint0_linear_642_597)"/>
<path d="M362.5 266.5C546 143 602.5 184 490.5 374L362.5 266.5Z" fill="url(#paint1_linear_642_597)"/>
<path d="M529 230.476C521.162 232.185 507.082 230.181 507.5 210.5L529 230.476Z" fill="#F0781D"/>
<path fill-rule="evenodd" clip-rule="evenodd" d="M557.246 164.498H560.235C560.728 164.498 561.203 164.68 561.57 165.009L574.915 176.973C575.291 177.31 575.525 177.778 575.571 178.281L575.942 182.359C575.98 182.775 575.887 183.192 575.676 183.552L567.982 196.676C567.677 197.196 567.623 197.826 567.834 198.39L568.947 201.358C568.982 201.453 569.025 201.544 569.074 201.632L618.619 290.318C618.869 290.765 619 291.269 619 291.781V294.419C619 294.803 618.926 295.183 618.783 295.539L569.5 418L567.627 422.682C567.543 422.892 567.495 423.116 567.486 423.342L565.5 471.498L530 471.998L538.266 460.329C538.42 460.11 538.53 459.863 538.587 459.602L544 434.998L544.815 430.921C544.932 430.336 544.782 429.73 544.406 429.268L540.291 424.202C539.132 422.776 538.5 420.995 538.5 419.158V413.089C538.5 412.703 538.389 412.326 538.179 412.002L533.667 405.029C533.258 404.397 533.239 403.588 533.618 402.936L558.921 359.491C559.28 358.876 559.938 358.498 560.65 358.498H562.184C562.983 358.498 563.705 358.023 564.021 357.289L589.837 297.377C589.944 297.127 590 296.858 590 296.585V295.015C590 294.676 589.914 294.342 589.75 294.046L558.515 237.637C557.703 236.17 555.588 236.307 555.019 237.884C553.884 241.022 552.685 244.625 551.807 247.262L551.807 247.262L551.807 247.262C551.026 249.608 550.5 251.189 550.5 251C550.5 249.197 490 196.002 484.5 194.5C482.546 193.966 525.391 176.252 548.512 171.105C548.839 171.033 549.133 170.883 549.386 170.664L555.936 164.987C556.3 164.672 556.765 164.498 557.246 164.498ZM601 293.998C601 295.655 602.119 296.998 603.5 296.998C604.881 296.998 606 295.655 606 293.998C606 292.341 604.881 290.998 603.5 290.998C602.119 290.998 601 292.341 601 293.998ZM604.586 280.131L566.051 212.346C565.632 211.61 564.546 211.694 564.246 212.485L559.664 224.567C559.56 224.84 559.581 225.146 559.722 225.402L592.529 285.228C592.927 285.953 594.029 285.928 594.52 285.261C596.096 283.122 598.942 281.03 602.951 281.977C603.957 282.215 605.096 281.029 604.586 280.131ZM594.059 305.633L569.487 361.392C569.234 361.966 569.566 362.629 570.178 362.77L574.733 363.821C575.183 363.925 575.646 363.707 575.852 363.294L580.224 354.551C580.393 354.212 580.739 353.998 581.118 353.998H584.352C584.746 353.998 585.104 353.767 585.265 353.407L605.869 307.407C606.165 306.745 605.681 305.998 604.956 305.998H604.736C604.581 305.998 604.429 306.035 604.288 306.1C602.288 307.03 598.579 307.827 596.255 305.45C595.64 304.822 594.414 304.828 594.059 305.633ZM568.887 364.188L573.69 365.217C574.344 365.357 574.679 366.087 574.359 366.674L562.007 389.319C561.427 390.383 559.808 389.691 560.176 388.536L567.725 364.862C567.881 364.372 568.384 364.08 568.887 364.188ZM560.868 403.504L563.428 407.025C563.892 407.664 564.878 407.538 565.167 406.803L581.247 365.913C581.417 365.48 580.874 365.124 580.545 365.453C580.515 365.483 580.49 365.517 580.47 365.554L560.795 402.446C560.614 402.784 560.643 403.195 560.868 403.504ZM539.639 402.762L555.627 375.737C556.239 374.703 557.82 375.428 557.435 376.566L548.654 402.543C548.557 402.83 548.333 403.057 548.05 403.168C545.317 404.236 543.596 405.615 542.564 406.844C542.037 407.472 540.927 407.497 540.52 406.785L539.632 405.231C539.545 405.079 539.5 404.908 539.5 404.734V403.272C539.5 403.093 539.548 402.917 539.639 402.762ZM548.418 418.943L545.555 417.034C544.89 416.591 544 417.068 544 417.867V420.793C544 420.928 544.025 421.062 544.089 421.182C544.715 422.365 546.842 424.481 549.757 426.345C549.915 426.446 550.099 426.498 550.287 426.498H554.283C554.426 426.498 554.567 426.468 554.696 426.406C556.588 425.494 560.288 423.011 561.475 419.572C561.492 419.523 561.504 419.472 561.513 419.421L561.973 416.664C561.991 416.556 561.991 416.444 561.973 416.336L561.518 413.605C561.506 413.534 561.487 413.466 561.46 413.399C560.756 411.71 558.673 408.339 555.578 407.518C555.526 407.504 555.476 407.488 555.427 407.467C554.219 406.97 551.46 406.322 549.5 407.498C549.391 407.564 549.284 407.627 549.18 407.69C547.105 408.931 546.111 409.526 544.858 411.814C544.64 412.213 544.739 412.709 545.082 413.009L547.618 415.227C547.962 415.528 548.5 415.283 548.5 414.827C548.5 414.625 548.614 414.441 548.794 414.351L550.289 413.604C550.428 413.534 550.581 413.498 550.736 413.498H552.649C552.876 413.498 553.097 413.575 553.274 413.717L555.125 415.198C555.362 415.388 555.5 415.675 555.5 415.979V418.084C555.5 418.349 555.395 418.603 555.207 418.791L553.293 420.705C553.105 420.893 552.851 420.998 552.586 420.998H550.914C550.649 420.998 550.395 420.893 550.207 420.705L548.57 419.068C548.54 419.038 548.508 419.01 548.475 418.984C548.456 418.97 548.437 418.956 548.418 418.943Z" fill="#3A362A"/>
<path d="M519 513H521H606.5C610.918 513 614.5 516.582 614.5 521V528.5C614.5 530.157 613.157 531.5 611.5 531.5H514C512.343 531.5 511 530.157 511 528.5V521C511 516.582 514.582 513 519 513Z" fill="#3A362A" stroke="#3A362A"/>
<g filter="url(#filter0_d_642_597)">
<path d="M466 311L519 433C509.4 443.8 488.667 452.5 479.5 455.5V494.713L476.5 497C483.432 503.444 490.091 516.472 495.5 521.5C498 529.5 514 528.5 512.5 530H507.983C504.152 530 500.478 531.522 497.769 534.231C496.598 535.402 495.235 536.362 493.739 537.071L491.863 537.96C488.311 539.642 484.509 540.734 480.607 541.193L478 541.5H460.5L440.5 538.5V519.5H225.5L232.5 525.5L209.5 534C201.333 544.333 186.4 567.1 184 571.5C181.388 576.288 175.276 576.484 169.821 576.457C138.149 576.298 84.985 576.134 74 576.5C62 576.9 62 571.667 63.5 569L104 528.5L140.5 418.5C144.5 403 154.5 366.5 162.5 344.5C170.5 322.5 196.167 299 208 290L242 274.5C246.5 272.667 257.1 268.9 263.5 268.5C269.9 268.1 283.167 264.333 289 262.5H371C376.667 263.833 393.2 268.1 414 274.5C440 282.5 439 282.5 448.5 290C456.1 296 463.333 306.5 466 311Z" fill="#3A362A"/>
<path d="M466 311L519 433C509.4 443.8 488.667 452.5 479.5 455.5V494.713L476.5 497C483.432 503.444 490.091 516.472 495.5 521.5C498 529.5 514 528.5 512.5 530H507.983C504.152 530 500.478 531.522 497.769 534.231C496.598 535.402 495.235 536.362 493.739 537.071L491.863 537.96C488.311 539.642 484.509 540.734 480.607 541.193L478 541.5H460.5L440.5 538.5V519.5H225.5L232.5 525.5L209.5 534C201.333 544.333 186.4 567.1 184 571.5C181.388 576.288 175.276 576.484 169.821 576.457C138.149 576.298 84.985 576.134 74 576.5C62 576.9 62 571.667 63.5 569L104 528.5L140.5 418.5C144.5 403 154.5 366.5 162.5 344.5C170.5 322.5 196.167 299 208 290L242 274.5C246.5 272.667 257.1 268.9 263.5 268.5C269.9 268.1 283.167 264.333 289 262.5H371C376.667 263.833 393.2 268.1 414 274.5C440 282.5 439 282.5 448.5 290C456.1 296 463.333 306.5 466 311Z" stroke="#3A362A"/>
</g>
<g filter="url(#filter1_d_642_597)">
<path d="M111.617 539.444C136.545 527.605 151.49 536.281 156.451 542.735C156.774 543.156 156.666 543.747 156.26 544.089C152.516 547.241 148.907 552.87 147.5 558.5C146.3 563.3 140.667 566.167 138 567C127 568.167 104.1 568.7 100.5 561.5C96.9219 554.344 106.219 543.961 111.405 539.58C111.47 539.525 111.541 539.481 111.617 539.444Z" fill="#FEFEFE" stroke="#3A362A"/>
<path d="M114.5 562C113.276 563.187 105.431 563.007 102.37 562.678C96.2484 559.216 103 546.5 111.5 540C117.025 535.775 129 534 134 534C124.613 534.791 122.436 543.394 122.777 547.35C114.104 553.283 116.03 560.517 114.5 562Z" fill="#E6DDCE"/>
<path d="M129 535.501L134 534C126.5 534 121.5 535.5 117.5 537.002C121.5 537.802 126.833 536.335 129 535.501Z" fill="#D7CEBD"/>
<path d="M129 548H125C122.6 548 122.334 546.333 122.5 545.5C122.5 541.1 126.834 537.193 129 535.789C134.6 533.62 135 537.026 134.5 539L129 548Z" fill="#3A362A"/>
<path d="M120.5 567.5C120.667 563.666 121.8 554.4 125 548M125 548H129L134.5 539C135 537.026 134.6 533.62 129 535.789C126.834 537.193 122.5 541.1 122.5 545.5C122.334 546.333 122.6 548 125 548Z" stroke="#3A362A"/>
<path d="M497.5 523.5C498.833 524.833 503.3 528.5 510.5 528.5" stroke="#C54A3A"/>
</g>
<path d="M521 510.953V475.999C521 473.79 522.791 471.999 525 471.999H596.5C598.709 471.999 600.5 473.79 600.5 475.999V512.128C600.5 513.017 600.204 513.881 599.657 514.583L598.201 516.456C597.443 517.43 596.278 518 595.044 518H527.77C526.643 518 525.568 517.524 524.81 516.69L522.04 513.643C521.371 512.907 521 511.948 521 510.953Z" fill="#EB4747" stroke="#3A362A"/>
<g filter="url(#filter2_d_642_597)">
<rect width="226" height="125" transform="matrix(-1 0 0 1 471 375)" fill="#FEFEFE"/>
<path d="M446.621 500C449.145 500 451.038 502.309 450.543 504.784L449.5 510H249C246.791 510 245 508.209 245 506V500H446.621Z" fill="#D7CEBD"/>
<path d="M208 549.5H498.5V547.578C498.5 546.539 498.176 545.525 497.573 544.678L480 520H235L209.532 544.525C208.553 545.467 208 546.768 208 548.127V549.5Z" fill="#D7CEBD"/>
<path d="M425 530V532.5H462.5C462.1 530.9 461.833 530.333 461.5 530H425Z" fill="#3A362A"/>
<path d="M464 530C464.5 531.5 464.667 531.667 465 532.5H474.5C474.1 531.3 473.5 530.5 473 530H464Z" fill="#3A362A"/>
<path d="M278.5 530V532.5H241C241.4 530.9 241.667 530.333 242 530H278.5Z" fill="#3A362A"/>
<path d="M239.5 530C239 531.5 238.833 531.667 238.5 532.5H229C229.4 531.3 230 530.5 230.5 530H239.5Z" fill="#3A362A"/>
<path d="M279 526V529H243.219C243.603 527.4 243.64 526.333 243.96 526H279Z" fill="#3A362A"/>
<path d="M241.56 526C241.08 527.5 240.92 528.167 240.6 529H231C231.384 527.8 232.44 526.5 232.92 526H241.56Z" fill="#3A362A"/>
<path d="M283.189 522L282.5 525H247.219C247.603 523.4 247.64 522.333 247.96 522H283.189Z" fill="#3A362A"/>
<path d="M245.56 522C245.08 523.5 244.92 524.167 244.6 525H235C235.384 523.8 236.44 522.5 236.92 522H245.56Z" fill="#3A362A"/>
<path d="M347 522V525H379.97C379.586 523.4 379.548 522.333 379.228 522H347Z" fill="#3A362A"/>
<path d="M381.628 522C382.108 523.5 382.268 524.167 382.588 525H391C391 524 390.748 522.5 390.268 522H381.628Z" fill="#3A362A"/>
<path d="M322.5 522V525H344V522H322.5Z" fill="#3A362A"/>
<path d="M391 526V529H414.5V526H391Z" fill="#3A362A"/>
<path d="M392.5 522L393 525H417V522H392.5Z" fill="#3A362A"/>
<path d="M315.5 526V529H294.96C294.92 527.5 294.96 526.5 294.96 526H315.5Z" fill="#3A362A"/>
<path d="M292 526V529H281.5C281.5 528 282 526.5 282 526H292Z" fill="#3A362A"/>
<path d="M286 522L285.5 525H306.54C306.58 523.5 306.54 522.5 306.54 522H286Z" fill="#3A362A"/>
<path d="M309.5 522V525H319.5V522H309.5Z" fill="#3A362A"/>
<path d="M455.311 522L472.5 534.5L483 523.5C482.616 521.9 481.32 522.333 481 522H455.311Z" fill="#3A362A"/>
<path d="M452.5 522L453 525H431.96C431.92 523.5 431.96 522.5 431.96 522H452.5Z" fill="#3A362A"/>
<path d="M429 522V525H419V522H429Z" fill="#3A362A"/>
<path d="M450.5 526L451 529H429.96C429.92 527.5 429.96 526.5 429.96 526H450.5Z" fill="#3A362A"/>
<path d="M427 526V529H417V526H427Z" fill="#3A362A"/>
<path d="M318 526V529H333.5C333.54 527.5 333.5 526.5 333.5 526H318Z" fill="#3A362A"/>
<path d="M337 526V529H351.5V526H337Z" fill="#3A362A"/>
<path d="M388.5 526V529H370.5C370.46 527.5 370.5 526.5 370.5 526H388.5Z" fill="#3A362A"/>
<path d="M367 526V529H355V526H367Z" fill="#3A362A"/>
<path d="M321 534H402.5L407.5 541.5V545H361H315.5V541.5L321 534Z" fill="#FEFEFE"/>
<path d="M362 541C362 540.724 361.776 540.5 361.5 540.5C361.224 540.5 361 540.724 361 541H362ZM362 545V541H361V545H362Z" fill="#D7CEBD"/>
<path d="M317 532.5V530H392.5L392 532.5H317Z" fill="#3A362A"/>
<circle cx="2.5" cy="2.5" r="2.5" transform="matrix(-1 0 0 1 357 351)" fill="#D9D9D9"/>
<path d="M471 362C471 359.791 469.209 358 467 358H249C246.791 358 245 359.791 245 362V375H471V362Z" fill="#D7CEBD"/>
<circle cx="3.5" cy="3.5" r="3.5" transform="matrix(-1 0 0 1 463 364)" fill="#3A362A"/>
<circle cx="3.5" cy="3.5" r="3.5" transform="matrix(-1 0 0 1 450 364)" fill="#3A362A"/>
<circle cx="3.5" cy="3.5" r="3.5" transform="matrix(-1 0 0 1 437 364)" fill="#3A362A"/>
<circle cx="3.5" cy="3.5" r="3.5" transform="matrix(-1 0 0 1 424 364)" fill="#3A362A"/>
<rect width="14" height="5" transform="matrix(-1 0 0 1 458 382)" fill="#D7CEBD"/>
<rect width="68" height="3" transform="matrix(-1 0 0 1 458 394)" fill="#D7CEBD"/>
<rect width="68" height="3" transform="matrix(-1 0 0 1 458 427)" fill="#D7CEBD"/>
<rect width="68" height="3" transform="matrix(-1 0 0 1 458 459)" fill="#D7CEBD"/>
<rect width="55" height="3" transform="matrix(-1 0 0 1 445 401)" fill="#3A362A"/>
<rect width="55" height="3" transform="matrix(-1 0 0 1 445 407)" fill="#3A362A"/>
<rect width="55" height="3" transform="matrix(-1 0 0 1 445 413)" fill="#3A362A"/>
<rect width="55" height="3" transform="matrix(-1 0 0 1 445 434)" fill="#3A362A"/>
<rect width="55" height="3" transform="matrix(-1 0 0 1 445 440)" fill="#3A362A"/>
<rect width="55" height="3" transform="matrix(-1 0 0 1 445 446)" fill="#3A362A"/>
<rect width="55" height="3" transform="matrix(-1 0 0 1 445 466)" fill="#3A362A"/>
<rect width="55" height="3" transform="matrix(-1 0 0 1 445 473)" fill="#3A362A"/>
<rect width="27" height="3" transform="matrix(-1 0 0 1 445 479)" fill="#3A362A"/>
<rect width="5" height="3" transform="matrix(-1 0 0 1 458 401)" fill="#C4C1B5"/>
<rect width="5" height="3" transform="matrix(-1 0 0 1 458 407)" fill="#C4C1B5"/>
<rect width="5" height="3" transform="matrix(-1 0 0 1 458 413)" fill="#C4C1B5"/>
<rect width="5" height="3" transform="matrix(-1 0 0 1 458 434)" fill="#C4C1B5"/>
<rect width="5" height="3" transform="matrix(-1 0 0 1 458 440)" fill="#C4C1B5"/>
<rect width="5" height="3" transform="matrix(-1 0 0 1 458 446)" fill="#C4C1B5"/>
<rect width="5" height="3" transform="matrix(-1 0 0 1 458 473)" fill="#C4C1B5"/>
<path d="M375 393.5V384C375 382.895 374.105 382 373 382H265.5" stroke="#D7CEBD" stroke-width="2"/>
<rect width="5" height="3" transform="matrix(-1 0 0 1 458 479)" fill="#C4C1B5"/>
<rect width="5" height="3" transform="matrix(-1 0 0 1 458 466)" fill="#C4C1B5"/>
<path d="M265.5 490.5H372C373.657 490.5 375 489.157 375 487.5V443C375 441.343 373.657 440 372 440H269C267.343 440 266 441.343 266 443V452" stroke="#D7CEBD" stroke-width="2"/>
<rect width="48" height="30" transform="matrix(-1 0 0 1 366 452)" fill="#D7CEBD"/>
<rect width="25" height="4" transform="matrix(-1 0 0 1 363 456)" fill="#F0781D"/>
<rect width="25" height="4" transform="matrix(-1 0 0 1 363 462)" fill="#F0781D"/>
<rect width="25" height="4" transform="matrix(-1 0 0 1 363 468)" fill="#F0781D"/>
<rect width="25" height="4" transform="matrix(-1 0 0 1 363 474)" fill="#F0781D"/>
<rect width="53" height="30" transform="matrix(-1 0 0 1 318 452)" fill="#E6DDCE"/>
<rect width="40" height="4" transform="matrix(-1 0 0 1 310 474)" fill="#FEFEFE"/>
<rect width="19" height="15" transform="matrix(-1 0 0 1 310 456)" fill="#FEFEFE"/>
<rect width="17" height="3" transform="matrix(-1 0 0 1 287 456)" fill="#FEFEFE"/>
<rect width="17" height="3" transform="matrix(-1 0 0 1 287 462)" fill="#FEFEFE"/>
<rect width="13" height="3" transform="matrix(-1 0 0 1 283 468)" fill="#FEFEFE"/>
<rect width="103" height="39" transform="matrix(-1 0 0 1 368 391)" fill="#E6DDCE"/>
<rect width="32" height="4" transform="matrix(-1 0 0 1 368 394)" fill="#FEFEFE"/>
<rect width="47" height="4" transform="matrix(-1 0 0 1 368 400)" fill="#FEFEFE"/>
<rect width="37" height="4" transform="matrix(-1 0 0 1 368 406)" fill="#FEFEFE"/>
<rect width="37" height="4" transform="matrix(-1 0 0 1 368 412)" fill="#FEFEFE"/>
<rect width="46" height="4" transform="matrix(-1 0 0 1 368 418)" fill="#FEFEFE"/>
<rect width="33" height="4" transform="matrix(-1 0 0 1 368 424)" fill="#FEFEFE"/>
<rect width="37" height="25" transform="matrix(-1 0 0 1 306 398)" fill="#FEFEFE"/>
<path d="M208 552.182V550H498C498 553.818 497.002 555.455 493.009 556H212.991C209.398 556 208.166 553.455 208 552.182Z" fill="#3A362A"/>
<path d="M208 551.5V549.5H498.5C498.5 553 497.5 554.5 493.5 555H213C209.4 555 208.167 552.667 208 551.5Z" fill="#A49580"/>
<path d="M309.5 530L309 532.5H280.5L280.992 530H309.5Z" fill="#3A362A"/>
<path d="M394 530V532.5H423V530H394Z" fill="#3A362A"/>
</g>
<g filter="url(#filter3_d_642_597)">
<path d="M200 472C199.6 473.6 192.833 473.333 189.5 473L189 468.5C192.833 469 200.4 470.4 200 472Z" fill="#F0781D"/>
<path d="M172.5 366.5C172.1 346.1 179.667 332 183.5 328L264.5 329C272.1 334.2 275.833 343.5 276 348H245C239.4 350 237 354.5 236.5 356.5L235.5 515L225.5 511C225.5 506.6 226.167 471 227 454C217 456.5 218 454.5 216.5 455C215.3 455.4 217 490.167 218 505.5L199 487C197 485.8 194.667 485.5 193 486L186 489.5C187.2 485.5 184.167 462.5 182.5 451.5H180C185.5 482 177.5 486 177.5 487.5C177.5 488.7 182.167 490 184.5 490.5L152 516C148.4 518 151 522.833 152.5 525.5C144 525.5 115 531.5 104.5 530.5C96.1 529.7 87.3333 521.833 84 518C80.4 514 78.5 506.333 78 503C77.8333 501.5 77.6 496.6 78 489C78.4 481.4 87.5 472.833 92 469.5C96.5 466 99 465 104.5 463.5C107.952 462.559 114.167 462.167 117 462.5C116.5 448 119.833 437.581 128.5 421C137.7 403.4 161.667 377.333 172.5 366.5Z" fill="#FB9224"/>
<path d="M176.5 406C169.5 404 152.5 395.667 151 390C146.2 394.4 139 404.5 136 409L176.5 406Z" fill="#F0781D"/>
<path d="M79.4998 509.5C110.3 539.1 153.5 510.333 170.5 493L179 498C183.833 505 185.2 520.4 152 526C118.8 531.6 103.833 531.333 101.5 530C85.4998 523.5 81.9998 515.5 79.4998 509.5Z" fill="#F0781D"/>
<path d="M109.5 491C110 491.5 115.333 492.667 118 492.5C99 505.5 95.9 516.1 91.5 510.5C87.1 504.9 101.667 495.167 109.5 491Z" fill="#F0781D"/>
<path d="M124.5 492.5C126.9 491.3 136.5 490 141 489.5C138 494 131.1 504.5 127.5 510.5C123.9 516.5 118 519.667 115.5 520.5C112.5 520.333 108.7 517.4 117.5 507C128.5 494 121.5 494 124.5 492.5Z" fill="#F0781D"/>
<path d="M187.5 441L190.5 486.5L186.5 489L180 452C174 433.6 154.5 427.667 145.5 427C157.9 425.4 164.667 429.333 166.5 431.5C170.5 428.3 174.167 426.5 175.5 426C185.5 423.2 186 425.5 187.5 441Z" fill="#F0781D"/>
<path d="M115 470C116.6 469.6 117 471.834 117 473C119.4 484.601 111.333 488.167 107 488.5L100.5 487.5C90.4999 487.5 82 491 78 492V490V489L78.5 486.5C80.5 482.5 96.4999 481.167 104 481C103.833 480.667 104 479.3 106 476.5C108 473.7 95.1667 472.833 89 472.5C90.6 470.9 95 467.5 98.5 466C103.7 472.4 108.833 472.833 111 472C111.667 471.5 113.4 470.4 115 470Z" fill="#F0781D"/>
<path d="M111.645 475.909C112.341 473.965 114.914 473.469 116.7 473.466C117.168 473.465 117.541 473.827 117.609 474.29C118.397 479.707 120.694 489.716 124.5 492H114.559C113.527 492 112.496 491.839 111.548 491.433C107.272 489.605 106.698 487.755 107 487C108.2 484.2 111.5 482.5 113 482C116.6 481.2 115.833 479.667 115 479L111.995 476.853C111.691 476.636 111.519 476.261 111.645 475.909Z" fill="#3A362A"/>
<path d="M124.5 492H114.559C113.527 492 112.496 491.839 111.548 491.433C107.272 489.605 106.698 487.755 107 487C108.2 484.2 111.5 482.5 113 482C116.6 481.2 115.833 479.667 115 479L111.995 476.853C111.691 476.636 111.519 476.261 111.645 475.909C112.341 473.965 114.914 473.469 116.7 473.466C117.168 473.465 117.541 473.827 117.609 474.29C118.397 479.707 120.694 489.716 124.5 492ZM124.5 492C135.333 488.833 161 485.2 177 496" stroke="#3A362A"/>
<path d="M266.94 281.31L266.917 281.24L266.916 281.166L266.416 253.684C266.25 251.869 265.854 249.11 265.208 246.712C264.883 245.507 264.501 244.416 264.064 243.587C263.614 242.732 263.163 242.266 262.757 242.131C261.288 241.641 259.991 241.415 258.905 241.529C257.84 241.641 256.973 242.08 256.315 242.957C255.695 243.785 253.377 246.311 250.768 249.099C248.145 251.901 245.194 255.002 243.276 257.003L243.095 257.192L242.837 257.151C235.52 255.987 217.729 254.366 205.022 257.146L204.738 257.208L204.543 256.991C202.379 254.577 199.034 250.933 196.032 247.843C194.53 246.298 193.119 244.896 191.987 243.859C191.42 243.339 190.93 242.917 190.537 242.615C190.34 242.464 190.174 242.347 190.04 242.265C189.897 242.179 189.82 242.149 189.794 242.142C189.481 242.064 189.202 241.989 188.948 241.921C188.344 241.758 187.88 241.633 187.433 241.593C186.86 241.541 186.349 241.636 185.693 242.073C185.396 242.271 185.002 242.679 184.566 243.333C184.135 243.979 183.682 244.838 183.255 245.905C182.401 248.04 181.661 250.988 181.414 254.69C181.016 260.663 181.248 275.471 181.415 282.145L181.418 282.255L181.374 282.356C180.033 285.457 178.025 289.473 176.102 292.902C175.14 294.617 174.195 296.191 173.362 297.435C172.946 298.057 172.554 298.602 172.199 299.041C171.925 299.381 171.661 299.673 171.416 299.893L171.415 301.224L174.486 301.662L174.915 301.724V302.157V316.032C176.094 318.226 178.907 322.296 182.412 326.181C185.961 330.115 190.148 333.778 193.999 335.156L248.411 334.657L248.477 334.657L248.542 334.673C252.261 335.644 260.707 335.53 264.957 327.454C265.315 326.486 266.066 325.047 267.193 323.786C268.264 322.589 269.709 321.515 271.512 321.209L272.93 315.536L272.937 315.508L272.947 315.482C273.406 314.258 274.112 310.19 272.925 304.255L272.806 303.657H273.415H278.481C278.512 303.317 278.51 302.897 278.436 302.483C278.327 301.881 278.08 301.368 277.638 301.073C276.005 299.984 271.956 296.862 266.94 281.31Z" fill="#FB9224" stroke="#3A362A"/>
<path d="M208.5 335H194C190.4 334.6 182.833 326.5 179.5 322.5C178 317.5 196 321.5 206 324C214 326 211 332.167 208.5 335Z" fill="#F0781D"/>
<path d="M238.5 335L256.5 334.5C264.5 331 266 323 271.5 320.5C273 315.5 259.5 311.499 249.5 313.999C241.5 315.999 236 332.167 238.5 335Z" fill="#F0781D"/>
<path d="M266.94 281.31L266.917 281.24L266.916 281.166L266.416 253.684C266.25 251.869 265.854 249.11 265.208 246.712C264.883 245.507 264.501 244.416 264.064 243.587C263.614 242.732 263.163 242.266 262.757 242.131C261.288 241.641 259.991 241.415 258.905 241.529C257.84 241.641 256.973 242.08 256.315 242.957C255.695 243.785 253.377 246.311 250.768 249.099C248.145 251.901 245.194 255.002 243.276 257.003L243.095 257.192L242.837 257.151C235.52 255.987 217.729 254.366 205.022 257.146L204.738 257.208L204.543 256.991C202.379 254.577 199.034 250.933 196.032 247.843C194.53 246.298 193.119 244.896 191.987 243.859C191.42 243.339 190.93 242.917 190.537 242.615C190.34 242.464 190.174 242.347 190.04 242.265C189.897 242.179 189.82 242.149 189.794 242.142C189.481 242.064 189.202 241.989 188.948 241.921C188.344 241.758 187.88 241.633 187.433 241.593C186.86 241.541 186.349 241.636 185.693 242.073C185.396 242.271 185.002 242.679 184.566 243.333C184.135 243.979 183.682 244.838 183.255 245.905C182.401 248.04 181.661 250.988 181.414 254.69C181.016 260.663 181.248 275.471 181.415 282.145L181.418 282.255L181.374 282.356C180.033 285.457 178.025 289.473 176.102 292.902C175.14 294.617 174.195 296.191 173.362 297.435C172.946 298.057 172.554 298.602 172.199 299.041C171.925 299.381 171.661 299.673 171.416 299.893L171.415 301.224L174.486 301.662L174.915 301.724V302.157V316.032C176.094 318.226 178.907 322.296 182.412 326.181C185.961 330.115 190.148 333.778 193.999 335.156L248.411 334.657L248.477 334.657L248.542 334.673C252.261 335.644 260.707 335.53 264.957 327.454C265.315 326.486 266.066 325.047 267.193 323.786C268.264 322.589 269.709 321.515 271.512 321.209L272.93 315.536L272.937 315.508L272.947 315.482C273.406 314.258 274.112 310.19 272.925 304.255L272.806 303.657H273.415H278.481C278.512 303.317 278.51 302.897 278.436 302.483C278.327 301.881 278.08 301.368 277.638 301.073C276.005 299.984 271.956 296.862 266.94 281.31Z" stroke="#3A362A"/>
<path d="M175.5 307V313C182.3 312.2 186.167 310 187.5 309C192.7 302.6 186 303 182 304L175.5 307Z" fill="#F0781D"/>
<path d="M177 385C177.4 406.2 198.833 406.167 209.5 403.5C206.5 401 204.5 397 202.5 394C199.7 398.8 184.333 390 177 385Z" fill="#F0781D"/>
<path d="M194.5 417C194.9 438.2 207.333 434.167 218 431.5C218.5 428 220.5 424.5 218.5 421.5C215.7 426.3 204 418 194.5 417Z" fill="#F0781D"/>
<path d="M273 308V312.5C266.2 311.7 261.833 310.573 260.5 309.573C255.3 303.173 262 303.573 266 304.573L273 308Z" fill="#F0781D"/>
<path d="M224.062 287.464L226.757 285.303C227.411 284.778 228.382 285.243 228.382 286.082V303.559C228.382 307.181 237.084 312.447 241.434 314.627C250.004 318.445 243.221 322.715 239.929 332.588C239.686 333.318 240.358 334.004 241.112 333.85C248.773 332.279 250.34 335.748 257.065 346.804C257.471 347.472 256.994 348.335 256.213 348.335H245.099C244.999 348.335 244.898 348.35 244.803 348.381C239.813 349.985 237.45 354.124 236.566 356.332C236.521 356.444 236.5 356.562 236.499 356.682L236.003 426.111C236.001 426.361 235.906 426.602 235.736 426.785L234.255 428.379C233.376 429.327 232.826 430.539 232.681 431.824C230.782 448.673 229.331 451.546 227.88 453.484C224.156 458.461 214.992 449.799 215.288 443.59C215.428 440.658 215.862 436.873 216.837 431.851C219.648 417.361 215.665 409.043 213.323 406.696C190.733 389.59 204.287 370.472 208.303 365.944C211.368 362.487 210.412 361.81 209.445 361.901C209.353 361.91 209.261 361.941 209.177 361.98C199.746 366.42 197.254 363.415 196.255 360.41C195.452 357.995 199.602 352.696 201.777 350.348C191.335 357.19 190.398 355.211 191.235 353.366C192.908 348.503 197.158 338.273 200.773 336.261C203.091 334.97 205.258 334.438 206.823 334.267C207.64 334.178 208.257 333.22 207.894 332.482C204.825 326.234 201.327 316.089 206.797 314.627C212.676 313.056 217.44 306.884 219.221 303.782C219.305 303.635 219.347 303.47 219.347 303.3V286.418C219.347 285.527 220.425 285.081 221.054 285.712L222.729 287.39C223.089 287.751 223.664 287.783 224.062 287.464Z" fill="#FEFEFE"/>
<path d="M233 426.5V429.5C233 460 225.624 455.5 216.5 455.5C214.5 455.5 215 443 216 437C221.6 435 222.5 433.364 226.5 429C232 423 232.833 425 233 426.5Z" fill="#FECEA9"/>
<path d="M201.5 378.501C205.129 374.212 210.716 374.494 214.098 375.612C216.358 376.36 216.822 378.675 216.299 380.998C214.772 387.765 210.736 401.555 204 396.501C202 395 199 384.5 201.5 378.501Z" fill="#FECEA9"/>
<path d="M238.5 337C237.333 338 234 339.9 230 339.5" stroke="#3A362A" stroke-width="2" stroke-linecap="round"/>
<path d="M213.5 337C214.667 338 218 339.9 222 339.5" stroke="#3A362A" stroke-width="2" stroke-linecap="round"/>
<path d="M199 266.001C193 267.201 188.5 270.834 187 272.501L188.5 262.501C194.5 262.001 195.167 261.668 195 261.001L199 266.001Z" fill="#FF948C"/>
<path d="M186.619 274.755L185.69 275.375C185.566 275.457 185.421 275.501 185.272 275.501C184.848 275.501 184.508 275.152 184.516 274.729C184.655 267.698 184.5 263.546 184.5 262.001C184.5 261.122 184.701 256.626 184.938 252.783C185.174 248.965 186.649 248.643 188.843 251.777L194.983 260.548C195.429 261.186 195.007 262.068 194.23 262.12L189.323 262.447C188.845 262.479 188.457 262.845 188.398 263.32L187.057 274.047C187.021 274.336 186.861 274.594 186.619 274.755Z" fill="#FFFDFF"/>
<path d="M201.5 265.501C196.035 258.478 186.494 247.469 186.141 247.469C186.067 247.469 184.5 250.001 185 251.001C186.479 248.043 196.157 261.688 200.328 267.27C200.439 267.419 200.61 267.501 200.795 267.501C201.286 267.501 201.792 266.846 201.816 266.356C201.827 266.123 201.779 265.859 201.5 265.501Z" fill="#C54A3A" stroke="#C54A3A"/>
<path d="M232.402 283.163L231 257C231 256.5 236.5 257 239 257.5C239 264.333 238 278.2 238 279C238 279.625 235.763 282.121 233.91 283.819C233.325 284.355 232.444 283.954 232.402 283.163Z" fill="#F0781D"/>
<path d="M215.065 284.118L216 257C216 256 208 257.5 208 257.5C208 264.333 209 276.2 209 277C209 277.642 211.685 282.194 213.692 284.654C214.199 285.275 215.037 284.92 215.065 284.118Z" fill="#F0781D"/>
<path d="M248.5 266C254.5 267.2 259 270.833 260.5 272.5L259 262.5C253 262 252.333 261.667 252.5 261L248.5 266Z" fill="#FF948C"/>
<path d="M260.881 274.754L261.81 275.374C261.934 275.456 262.079 275.5 262.228 275.5C262.652 275.5 262.992 275.151 262.984 274.728C262.845 267.697 263 263.545 263 262C263 261.121 262.799 256.625 262.562 252.782C262.326 248.964 260.851 248.642 258.657 251.776L252.517 260.547C252.071 261.185 252.493 262.067 253.27 262.119L258.177 262.446C258.655 262.478 259.043 262.844 259.102 263.319L260.443 274.046C260.479 274.335 260.639 274.593 260.881 274.754Z" fill="#FFFDFF"/>
<path d="M246 265.5C251.465 258.477 261.006 247.468 261.359 247.468C261.433 247.468 263 250 262.5 251C261.021 248.042 251.343 261.687 247.172 267.269C247.061 267.418 246.89 267.5 246.705 267.5C246.214 267.5 245.708 266.845 245.684 266.355C245.673 266.122 245.721 265.858 246 265.5Z" fill="#C54A3A" stroke="#C54A3A"/>
<path d="M213 296C213 301.523 208.523 306 203 306C197.477 306 193 301.523 193 296C193 290.477 197.977 285.5 203.5 285.5C209.023 285.5 213 290.477 213 296Z" fill="#3A362A"/>
<path d="M213 296C213 301.523 208.523 306 203 306C197.477 306 193 301.523 193 296C193 290.477 197.477 288 203 288C208.523 288 213 290.477 213 296Z" fill="#F1F1F1"/>
<path d="M212 295C212 299.971 208.418 304 204 304C199.582 304 196 299.971 196 295C196 290.029 199.082 287 203.5 287C207.918 287 212 290.029 212 295Z" fill="#3A362A"/>
<ellipse cx="1.5" cy="2" rx="1.5" ry="2" transform="matrix(-1 0 0 1 201 290)" fill="#F1F1F1"/>
<path d="M236 296C236 301.523 240.477 306 246 306C251.523 306 256 301.523 256 296C256 290.477 251.023 285.5 245.5 285.5C239.977 285.5 236 290.477 236 296Z" fill="#3A362A"/>
<path d="M236 296C236 301.523 240.477 306 246 306C251.523 306 256 301.523 256 296C256 290.477 251.523 288 246 288C240.477 288 236 290.477 236 296Z" fill="#F1F1F1"/>
<path d="M237 295C237 299.971 240.582 304 245 304C249.418 304 253 299.971 253 295C253 290.029 249.918 287 245.5 287C241.082 287 237 290.029 237 295Z" fill="#3A362A"/>
<ellipse cx="1.5" cy="2" rx="1.5" ry="2" transform="matrix(-1 0 0 1 244 290)" fill="#F1F1F1"/>
<path d="M214.5 325.5C217.167 325.333 222.6 324.2 223 321C223.4 317.8 223.5 315.667 223.5 315L224 321.5C224.833 322.833 227.6 325.5 232 325.5" stroke="#3A362A" stroke-width="2"/>
<ellipse cx="6.5" cy="3.5" rx="6.5" ry="3.5" transform="matrix(-1 0 0 1 230 308)" fill="#3A362A"/>
<ellipse cx="1.5" cy="1" rx="1.5" ry="1" transform="matrix(-1 0 0 1 225 309)" fill="#F1F1F1"/>
<path d="M270.5 292C271 294 277 301 277.5 301.5C278 302 278 302.333 278 303C276.167 303 272.5 302.5 271.5 303.5C268.833 301.833 263.6 297.7 262 296.5C260 295 261.5 295 261.5 294C261.5 293.2 269.5 290 270.5 292Z" fill="#F0781D"/>
<path d="M178.46 289.5C177.5 291.5 172.96 298.648 172.46 299.148C171.96 299.648 171.96 299.981 171.96 300.648C174 301 174 301 175.5 301.5C178.167 299.833 186.86 297.7 188.46 296.5C190.46 295 189 292.5 188.46 291.648C188.032 290.972 179.46 287.5 178.46 289.5Z" fill="#F0781D"/>
<path d="M206 316L173 314" stroke="#FEFEFE" stroke-linecap="round"/>
<path d="M205 320L177 326" stroke="#FEFEFE" stroke-linecap="round"/>
<path d="M206 317L177 320" stroke="#FEFEFE" stroke-linecap="round"/>
<path d="M243 316L276 314" stroke="#FEFEFE" stroke-linecap="round"/>
<path d="M244 320L272 326" stroke="#FEFEFE" stroke-linecap="round"/>
<path d="M243 317L272 320" stroke="#FEFEFE" stroke-linecap="round"/>
<path d="M142.5 428.5C166.5 426.999 184 443 182.5 477.5C182.5 454 181.7 441.8 180.5 437" stroke="#3A362A" stroke-width="2" stroke-linecap="round"/>
<ellipse cx="3.05712" cy="2.16205" rx="3.05712" ry="2.16205" transform="matrix(-0.748652 -0.662963 -0.662963 0.748652 142.415 466.531)" fill="#F0781D"/>
<path d="M147.5 474C141.5 479.2 148 483.167 152 484.5C155.833 483.667 164.9 480.1 170.5 472.5C175.273 466.022 164.766 459.932 158.669 458.378C156.958 457.941 155.19 458.514 153.865 459.681C146.663 466.026 153.032 469.206 147.5 474Z" fill="#F0781D"/>
<path d="M196 373C189 368.5 176.333 365.666 172.5 366.5C171.7 355.299 174.833 344.833 176.5 341L196 373Z" fill="#F0781D"/>
<path d="M142.5 453C124 449.5 123 456.333 117 462.5C115 452.5 121.5 435.333 125 428L142.5 453Z" fill="#F0781D"/>
</g>
<path d="M541.545 463.446H597.373L591.1 547.501H549.073C548.069 544.992 543.636 490.419 541.545 463.446Z" fill="#FEFEFE"/>
<path d="M598 453.575V462.819H540.291V453.575C540.291 451.462 542.02 450.494 542.885 450.273H595.491C597.566 451.33 598 452.915 598 453.575Z" fill="#FEFEFE"/>
<path d="M561.618 538.091C561.618 538.091 564.127 544.991 566.636 546.873H549.7C548.445 543.109 547.818 537.464 547.818 537.464L561.618 538.091Z" fill="#D7CEBD"/>
<path d="M548.446 537.464C561.995 538.468 580.436 538.301 587.964 537.464C587.964 522.41 592.145 481.846 594.236 463.446H541.546C542.173 472.228 545.936 516.137 548.446 537.464Z" fill="#FB9224"/>
<ellipse cx="1.25454" cy="3.13636" rx="1.25454" ry="3.13636" transform="matrix(-1 0 0 1 585.455 492.928)" fill="#F1F1F1"/>
<path d="M541.545 464.073C542.047 488.16 545.936 523.037 547.818 537.464C554.342 538.468 559.945 538.3 561.618 538.091C551.582 504.971 547.818 481.01 547.191 464.073H541.545Z" fill="#F0781D"/>
<path d="M540.962 463.446H597.373L591.1 547.501H549.073C548.069 544.992 543.053 490.419 540.962 463.446Z" stroke="#3A362A"/>
<path d="M544.055 450.273C544.055 455.919 545.937 458.428 546.564 462.819H540.291V452.783C540.291 451.779 542.173 450.273 542.8 450.273H544.055Z" fill="#E6DDCE"/>
<path d="M595.491 444.982C595.491 441.669 592.804 438.982 589.491 438.982H548.8C545.486 438.982 542.8 441.669 542.8 444.982V450.273H595.491V444.982Z" fill="#D7CEBD"/>
<g filter="url(#filter4_d_642_597)">
<path d="M629.5 559H603" stroke="#3A362A"/>
<path d="M615 588H191.5" stroke="#3A362A"/>
<path d="M172.5 587.5H50" stroke="#3A362A"/>
<path d="M67 558.5H50" stroke="#3A362A"/>
<path d="M46 558.5H30" stroke="#3A362A"/>
<path d="M30 527.5H99" stroke="#3A362A"/>
<path d="M91 540.5H61" stroke="#3A362A"/>
<path d="M57 541H46" stroke="#3A362A"/>
<path d="M41 541H28" stroke="#3A362A"/>
<path d="M514 558.5H494" stroke="#3A362A"/>
<path d="M495 570H477" stroke="#3A362A"/>
<path d="M599.5 558.5H563" stroke="#3A362A"/>
<path d="M542 559H524" stroke="#3A362A"/>
<path d="M609.5 547H596" stroke="#3A362A"/>
<path d="M606.5 540.5H625.5" stroke="#3A362A"/>
<path d="M617 527.5H628.5" stroke="#3A362A"/>
<path d="M228.5 569.5H254" stroke="#3A362A"/>
<path d="M221.5 569.5H192.5" stroke="#3A362A"/>
<path d="M384.5 602.5H357" stroke="#3A362A"/>
<path d="M299.5 604.5H262.5" stroke="#3A362A"/>
<path d="M431 510.5L447.5 503.5L445 511.5L440 518.5C438.167 518.333 432.4 520.7 430 517.5C427.6 514.3 429.833 511.5 431 510.5Z" fill="#FF948C" stroke="#C54A3A"/>
<path d="M439.019 511.501L437.267 516.757C437.102 517.251 436.99 517.762 436.932 518.28L436.434 522.763C436.212 524.757 437.773 526.501 439.779 526.501C439.938 526.501 440.097 526.489 440.255 526.467L440.389 526.448C442.316 526.173 443.934 524.859 444.599 523.03L445.519 520.501L447.519 515.502C451.019 511.002 455 508.5 455 508.5C455 508.5 463.547 502.169 463.983 503.388C464.003 503.446 464.05 503.5 464.11 503.5C465.089 503.5 465.532 504.723 464.78 505.35L461 508.5L446 522.5L440.648 536.816C440.271 537.823 440.578 538.958 441.41 539.639L441.609 539.802C443.954 541.72 447.251 541.957 449.846 540.395C450.272 540.138 450.607 539.756 450.805 539.3L453 534.25L459 528L467 519.5C472.667 513.167 472.5 513.501 474.5 511.501C476.5 509.501 476.833 510.876 476.5 512.043C471.833 516.543 472.4 515.7 468 520.5C463.6 525.3 455.5 531.501 455 536.501C456.5 543.31 468 545.501 470.5 534.501L486.5 518.001C487.248 518.001 487.628 518.9 487.108 519.436L472.5 534.501C467.5 547.501 479.5 541.167 482.5 538.501L496.5 526.501C497.999 524.834 501.381 520.191 498.981 516.191C495.981 511.191 476 496.191 470.5 492.691C466.1 489.891 459.519 490.002 458.019 491.002C444.537 501.311 439.019 511.501 439.019 511.501Z" fill="#FDFDFF" stroke="#C54A3A"/>
<path d="M458.5 531C460.5 540.6 467 537.333 470 534.5C469.667 536.5 468 540.7 464 541.5C459 542.5 455.5 538.5 455.5 536.5C455.5 534.9 458 531 458.5 531Z" fill="#FF948C"/>
<path d="M235.306 514.616L222.5 510.5L223 523C224 523.833 228.4 528 232 528C233.816 528 235.454 527.152 236.76 526.097C238.875 524.389 239.5 521.563 239.5 518.845V518.5C239.5 517.634 238.459 516.543 237.504 515.752C236.862 515.221 236.098 514.871 235.306 514.616Z" fill="#FF948C" stroke="#C54A3A"/>
<path d="M224 525H218V524.5L214 515C210 510.5 201.1 500.5 197.5 496.5C193.9 492.5 193 494.833 193 496.5L201 503.5L212.5 515C214.334 518 218.7 526.5 221.5 536.5C223.98 545.356 219.061 545.977 215.357 544.961C214.462 544.716 213.76 544.054 213.32 543.237L203.5 525C197.834 518.667 186 505.5 184 503.5C182 501.5 182.167 503.333 182.5 504.5C187.167 509 197.6 519.2 202 524C206.4 528.8 207.167 534.333 207 536.5C204 546 196.5 541 196.5 539C196.5 537.4 193.167 533 191.5 531L173 513L191 532C192.6 544 187 541.667 184 539L165 519C163.5 517.333 161.1 513 163.5 509C166.5 504 185.5 490 191 486.5C195.4 483.7 199.5 485 201 486C206.667 492.166 219 505.6 223 510C227 514.4 225.334 521.833 224 525Z" fill="#FDFDFF" stroke="#C54A3A"/>
<path d="M215.5 517C220.5 518 223 517.833 225 516.5C225.4 520.5 225 521 224 524.5H218.5L215.5 517Z" fill="#FF948C"/>
<path d="M479 528.5C478.6 533.3 484.167 534.167 487 534C484.2 537.2 479.5 540 477.5 541C476 541.667 472.8 542.6 472 541C471.2 539.4 472.333 536 473 534.5L479 528.5Z" fill="#FF948C"/>
<path d="M201.5 522C207.9 524.4 211.833 519.667 213 517C216.2 520.6 219.667 531.5 221 536.5L221.736 539.446C221.91 540.14 221.927 540.864 221.787 541.565L221.734 541.829C221.582 542.592 221.206 543.294 220.655 543.845C219.916 544.584 218.912 545 217.866 545H217.704C217.238 545 216.775 544.925 216.332 544.777L215.101 544.367C214.396 544.132 213.813 543.626 213.481 542.962L213 542L201.5 522Z" fill="#FF948C"/>
<path d="M437.5 517.5C438.7 521.5 443 521.167 445 520.5C445 521.7 444 523.333 443.5 524C440.5 528 437.671 525.842 437 524.5C436.5 523.5 437.167 519.333 437.5 517.5Z" fill="#FF948C"/>
<path d="M446.5 522.5C448 531.5 453.667 529.167 458.5 528L452.5 534L450.694 538.514C450.565 538.837 450.394 539.141 450.186 539.418C449.439 540.414 448.268 541 447.023 541H445.992C444.396 541 442.866 540.366 441.738 539.238L441.5 539C441.5 539 441 538.5 441 537.5C441 536.7 444.667 527.167 446.5 522.5Z" fill="#FF948C"/>
<path d="M192 531C196.4 534.2 201.167 529 203 526C207.5 533 206.833 535.667 206.5 536.5C203 546 196.999 540.118 197 539C197 538.5 194 533.5 192 531Z" fill="#FF948C"/>
<path d="M182.5 536.5C188.9 536.9 188.833 532 188 529.5L190.5 532C192.5 545.5 185.667 540.5 182.5 536.5Z" fill="#FF948C"/>
<path d="M449 535C447.167 535 445.5 535 444.5 533.5" stroke="#FDFDFF" stroke-linecap="round"/>
<path d="M211.5 533.5C213.333 533.5 215 533.5 216 532" stroke="#FDFDFF" stroke-linecap="round"/>
</g>
<g filter="url(#filter5_d_642_597)">
<path d="M299.5 260.5C303 268.5 360.5 267 361.5 227C361.5 227 296 252.5 299.5 260.5Z" fill="#FF948C"/>
<path d="M299.5 260C319.9 259.2 337 250 343 245.5L299.5 216.5V260Z" fill="#C54A3A"/>
<path d="M300 221.5H362V226C347.5 241 348 247 328.5 247.5C312.9 247.9 303 233.333 300 226V221.5Z" fill="#3A362A"/>
<path d="M363.5 258.5L362 256.5V226M362 226V221.5H300V226C303 233.333 312.9 247.9 328.5 247.5C348 247 347.5 241 362 226Z" stroke="#3A362A" stroke-linecap="round"/>
<path d="M286.5 189.5V121.5C298.5 138.3 308.5 142.167 312 142V133.5C317.2 141.9 327.5 145.667 332 146.5C367.2 146.9 375.667 149.667 375.5 151V189.5C371.1 218.3 353.333 231.5 345 234.5C339.167 236.833 323.9 239.2 309.5 230C295.1 220.8 288.167 199.167 286.5 189.5Z" fill="#FDFDFF" stroke="#3A362A"/>
<path d="M379 181H376L375 150.5C366.5 148.5 342.5 146.84 332 146C322 145.2 314.167 137.333 311.5 133V141.5C302.3 141.1 290.667 127 286 120V180.5C282 180.9 281.833 178.5 280.5 174C279.167 168.833 271.6 152 268 148C264.4 144 262.833 134.333 262.5 130C258.9 101.6 275.667 94.8333 284.5 95C288.9 76.6 304.333 70.3338 311.5 69.5007C327.5 57.9007 345.167 64.6673 352 69.5007H365.5C368 69.834 373.7 70.6007 376.5 71.0007C379.3 71.4007 378.667 72.5007 378 73.0007C361.2 77.8007 359 79.6673 360 80.0007C394.8 80.8007 399.5 110.334 397.5 125.001C403.5 126.201 402.667 129.834 401.5 131.501L387 163.5C378.5 164 382 174 379 181Z" fill="#3A362A"/>
<path d="M392 176C389.5 191.5 391 187.5 374 198.5L376 189.499V180.999H379C380.167 175.833 382 165.265 382 164C382 163.499 394.53 160.312 392 176Z" fill="#FDFDFF" stroke="#C54A3A" stroke-linecap="round"/>
<path d="M270 175.599C272.5 191.099 271.5 187 288.5 198L286.873 191.493C286.625 190.5 286.473 189.485 286.418 188.463L286 180.599H283C281.833 175.432 280 164.864 280 163.599C280 163.099 267.47 159.912 270 175.599Z" fill="#FDFDFF" stroke="#C54A3A" stroke-linecap="round"/>
<path d="M378.5 118.5C374 115.333 362.8 108.9 354 108.5" stroke="#FDFDFF" stroke-width="3" stroke-linecap="round"/>
<path d="M357 133C352 131.333 341.5 127.7 339.5 126.5" stroke="#796E5A" stroke-width="3" stroke-linecap="round"/>
<path d="M361 91.0002C353.833 89.6669 338.8 87.3002 336 88.5002" stroke="#796E5A" stroke-width="3" stroke-linecap="round"/>
<path d="M287 128V123C297.5 137.5 308.333 142.333 312.5 142.5V135C317.3 142.2 327.5 146 332 147C335.6 146.2 354.833 147.667 364 148.5L367.5 149C370.7 149 374.5 150 375 151V154.5C364.5 149 359.5 151 335.5 149.5C311.5 148 308 145 297.5 139.5C289.1 135.1 287 130 287 128Z" fill="#C54A3A"/>
<path d="M286.5 189.5V121.5C298.5 138.3 308.5 142.167 312 142V133.5C317.2 141.9 327.5 145.667 332 146.5C367.2 146.9 375.667 149.667 375.5 151V189.5C371.1 218.3 353.333 231.5 345 234.5C339.167 236.833 323.9 239.2 309.5 230C295.1 220.8 288.167 199.167 286.5 189.5Z" stroke="#3A362A"/>
<path d="M328 166V185.5C326 187.167 325 193.5 328 195.5C331.75 198 336 196 336.5 192.5" stroke="#C54A3A" stroke-width="3" stroke-linecap="round"/>
<path d="M346.5 205.5C333.5 216 327 216 315.5 205.5" stroke="#C54A3A" stroke-width="3" stroke-linecap="round"/>
<path d="M361.5 256.5V227.5C355.1 260.7 317.5 263.333 299.5 260.5L299 269.5C301.5 277 309.7 296.8 336.5 290C363.3 283.2 363.5 274.5 363 258.5L361.5 256.5Z" fill="#FDFDFF"/>
<path d="M363 257L371 262C371 274 364 296.5 331.5 297C299 297.5 293 274 292 270.5C291.259 267.906 291.605 264.255 291.925 262.406C291.97 262.145 292.124 261.917 292.345 261.77L299.5 257V258.5C299.5 261.089 299.409 264.59 299.429 267.788C299.442 269.909 299.921 272.012 301.003 273.836C305.589 281.574 314.53 289.5 331 289.5C349.5 289.5 358 279.5 361 273C363.4 267.8 363 262 363 257Z" fill="#796E5A"/>
<ellipse cx="6" cy="7" rx="6" ry="7" transform="matrix(-1 0 0 1 361 162)" fill="#3A362A"/>
<ellipse cx="6" cy="7" rx="6" ry="7" transform="matrix(-1 0 0 1 314 162)" fill="#3A362A"/>
<path d="M369.79 156.5C369.79 153.7 365.79 152.667 363.79 152.5H347.29C344.79 152.5 338.29 160.5 348.79 159C355.79 158 358.79 157.636 363.79 159C365.623 159.5 369.79 159.3 369.79 156.5Z" fill="#3A362A"/>
<path d="M292.21 156C292.21 153.2 296.21 152.167 298.21 152H314.71C317.21 152 323.71 160 313.21 158.5C306.21 157.5 303.21 157.136 298.21 158.5C296.377 159 292.21 158.8 292.21 156Z" fill="#3A362A"/>
<path d="M376.5 188.5C384.5 186 386.333 173.5 382 168.5H381.5L379 181H376.5L376.5 188.5Z" fill="#FF948C" stroke="#FF948C" stroke-linecap="round"/>
<path d="M285.5 188.1C277.5 185.6 275.667 173.1 280 168.1H280.5L283 180.6H285.5L285.5 188.1Z" fill="#FF948C" stroke="#FF948C" stroke-linecap="round"/>
</g>
<g filter="url(#filter6_d_642_597)">
<path d="M421 569C425.5 568.5 431.8 567 421 565V569Z" fill="#3A362A"/>
<path d="M421 569V565L408 562V572L421 569Z" fill="#F0781D"/>
<path d="M311 562L311.343 572H408V562H311Z" fill="#3A362A"/>
<path d="M311.789 562L312 572H284.628C283.785 568 283.796 566 284.628 562H311.789Z" fill="#FB9224"/>
</g>
<path d="M174 73V66" stroke="#A49580" stroke-width="2"/>
<path fill-rule="evenodd" clip-rule="evenodd" d="M174 156C145.833 156 123 133.167 123 105C123 76.8335 145.833 54 174 54C202.167 54 225 76.8335 225 105C225 133.167 202.167 156 174 156ZM174 145.182C151.808 145.182 133.818 127.192 133.818 105C133.818 82.8082 151.808 64.8182 174 64.8182C196.192 64.8182 214.182 82.8082 214.182 105C214.182 127.192 196.192 145.182 174 145.182Z" fill="#A49580"/>
<path d="M159 90.5L173.22 104.246C173.64 104.652 174.317 104.613 174.688 104.161L194.5 80" stroke="#A49580" stroke-width="3" stroke-linecap="round"/>
<path d="M174 144V137" stroke="#A49580" stroke-width="2"/>
<path d="M211 105H203" stroke="#A49580" stroke-width="2"/>
<path d="M143 105H135" stroke="#A49580" stroke-width="2"/>
<defs>
<filter id="filter0_d_642_597" x="50.3184" y="262" width="469.268" height="323.021" filterUnits="userSpaceOnUse" color-interpolation-filters="sRGB">
<feFlood flood-opacity="0" result="BackgroundImageFix"/>
<feColorMatrix in="SourceAlpha" type="matrix" values="0 0 0 0 0 0 0 0 0 0 0 0 0 0 0 0 0 0 127 0" result="hardAlpha"/>
<feOffset dx="-8" dy="4"/>
<feGaussianBlur stdDeviation="2"/>
<feComposite in2="hardAlpha" operator="out"/>
<feColorMatrix type="matrix" values="0 0 0 0 0 0 0 0 0 0 0 0 0 0 0 0 0 0 0.25 0"/>
<feBlend mode="normal" in2="BackgroundImageFix" result="effect1_dropShadow_642_597"/>
<feBlend mode="normal" in="SourceGraphic" in2="effect1_dropShadow_642_597" result="shape"/>
</filter>
<filter id="filter1_d_642_597" x="71.2002" y="523.146" width="439.3" height="53.0469" filterUnits="userSpaceOnUse" color-interpolation-filters="sRGB">
<feFlood flood-opacity="0" result="BackgroundImageFix"/>
<feColorMatrix in="SourceAlpha" type="matrix" values="0 0 0 0 0 0 0 0 0 0 0 0 0 0 0 0 0 0 127 0" result="hardAlpha"/>
<feOffset dx="-24" dy="4"/>
<feGaussianBlur stdDeviation="2"/>
<feComposite in2="hardAlpha" operator="out"/>
<feColorMatrix type="matrix" values="0 0 0 0 0 0 0 0 0 0 0 0 0 0 0 0 0 0 0.25 0"/>
<feBlend mode="normal" in2="BackgroundImageFix" result="effect1_dropShadow_642_597"/>
<feBlend mode="normal" in="SourceGraphic" in2="effect1_dropShadow_642_597" result="shape"/>
</filter>
<filter id="filter2_d_642_597" x="180" y="351" width="318.5" height="213" filterUnits="userSpaceOnUse" color-interpolation-filters="sRGB">
<feFlood flood-opacity="0" result="BackgroundImageFix"/>
<feColorMatrix in="SourceAlpha" type="matrix" values="0 0 0 0 0 0 0 0 0 0 0 0 0 0 0 0 0 0 127 0" result="hardAlpha"/>
<feOffset dx="-24" dy="4"/>
<feGaussianBlur stdDeviation="2"/>
<feComposite in2="hardAlpha" operator="out"/>
<feColorMatrix type="matrix" values="0 0 0 0 0 0 0 0 0 0 0 0 0 0 0 0 0 0 0.25 0"/>
<feBlend mode="normal" in2="BackgroundImageFix" result="effect1_dropShadow_642_597"/>
<feBlend mode="normal" in="SourceGraphic" in2="effect1_dropShadow_642_597" result="shape"/>
</filter>
<filter id="filter3_d_642_597" x="49.7793" y="241" width="229.221" height="297.802" filterUnits="userSpaceOnUse" color-interpolation-filters="sRGB">
<feFlood flood-opacity="0" result="BackgroundImageFix"/>
<feColorMatrix in="SourceAlpha" type="matrix" values="0 0 0 0 0 0 0 0 0 0 0 0 0 0 0 0 0 0 127 0" result="hardAlpha"/>
<feOffset dx="-24" dy="4"/>
<feGaussianBlur stdDeviation="2"/>
<feComposite in2="hardAlpha" operator="out"/>
<feColorMatrix type="matrix" values="0 0 0 0 0 0 0 0 0 0 0 0 0 0 0 0 0 0 0.25 0"/>
<feBlend mode="normal" in2="BackgroundImageFix" result="effect1_dropShadow_642_597"/>
<feBlend mode="normal" in="SourceGraphic" in2="effect1_dropShadow_642_597" result="shape"/>
</filter>
<filter id="filter4_d_642_597" x="0" y="484.31" width="629.5" height="128.69" filterUnits="userSpaceOnUse" color-interpolation-filters="sRGB">
<feFlood flood-opacity="0" result="BackgroundImageFix"/>
<feColorMatrix in="SourceAlpha" type="matrix" values="0 0 0 0 0 0 0 0 0 0 0 0 0 0 0 0 0 0 127 0" result="hardAlpha"/>
<feOffset dx="-24" dy="4"/>
<feGaussianBlur stdDeviation="2"/>
<feComposite in2="hardAlpha" operator="out"/>
<feColorMatrix type="matrix" values="0 0 0 0 0 0 0 0 0 0 0 0 0 0 0 0 0 0 0.25 0"/>
<feBlend mode="normal" in2="BackgroundImageFix" result="effect1_dropShadow_642_597"/>
<feBlend mode="normal" in="SourceGraphic" in2="effect1_dropShadow_642_597" result="shape"/>
</filter>
<filter id="filter5_d_642_597" x="234.001" y="63.0957" width="168.328" height="241.912" filterUnits="userSpaceOnUse" color-interpolation-filters="sRGB">
<feFlood flood-opacity="0" result="BackgroundImageFix"/>
<feColorMatrix in="SourceAlpha" type="matrix" values="0 0 0 0 0 0 0 0 0 0 0 0 0 0 0 0 0 0 127 0" result="hardAlpha"/>
<feOffset dx="-24" dy="4"/>
<feGaussianBlur stdDeviation="2"/>
<feComposite in2="hardAlpha" operator="out"/>
<feColorMatrix type="matrix" values="0 0 0 0 0 0 0 0 0 0 0 0 0 0 0 0 0 0 0.25 0"/>
<feBlend mode="normal" in2="BackgroundImageFix" result="effect1_dropShadow_642_597"/>
<feBlend mode="normal" in="SourceGraphic" in2="effect1_dropShadow_642_597" result="shape"/>
</filter>
<filter id="filter6_d_642_597" x="272" y="562" width="154.963" height="19" filterUnits="userSpaceOnUse" color-interpolation-filters="sRGB">
<feFlood flood-opacity="0" result="BackgroundImageFix"/>
<feColorMatrix in="SourceAlpha" type="matrix" values="0 0 0 0 0 0 0 0 0 0 0 0 0 0 0 0 0 0 127 0" result="hardAlpha"/>
<feOffset dx="-8" dy="5"/>
<feGaussianBlur stdDeviation="2"/>
<feComposite in2="hardAlpha" operator="out"/>
<feColorMatrix type="matrix" values="0 0 0 0 0 0 0 0 0 0 0 0 0 0 0 0 0 0 0.25 0"/>
<feBlend mode="normal" in2="BackgroundImageFix" result="effect1_dropShadow_642_597"/>
<feBlend mode="normal" in="SourceGraphic" in2="effect1_dropShadow_642_597" result="shape"/>
</filter>
<linearGradient id="paint0_linear_642_597" x1="517" y1="196.5" x2="517.5" y2="251" gradientUnits="userSpaceOnUse">
<stop stop-color="white"/>
<stop offset="1" stop-color="#D4CAB9"/>
</linearGradient>
<linearGradient id="paint1_linear_642_597" x1="493.107" y1="184.599" x2="493.107" y2="321.749" gradientUnits="userSpaceOnUse">
<stop stop-color="#F1F1F1" stop-opacity="0.74"/>
<stop offset="1" stop-color="#F1F1F1" stop-opacity="0"/>
</linearGradient>
</defs>
</svg>
